<?xml version="1.0" encoding="UTF-8"?>
<svg xmlns="http://www.w3.org/2000/svg" xmlns:xlink="http://www.w3.org/1999/xlink" viewBox="0 0 512 512">
  <!-- Dark background circle with slight gradient -->
  <defs>
    <radialGradient id="bgGradient" cx="50%" cy="50%" r="50%">
      <stop offset="0%" style="stop-color:#1e293b;stop-opacity:1" />
      <stop offset="100%" style="stop-color:#0f172a;stop-opacity:1" />
    </radialGradient>
    <linearGradient id="linear-gradient" x1="79.89" y1="224.9" x2="333.23" y2="663.69" gradientUnits="userSpaceOnUse">
      <stop offset="0" stop-color="#0ad7f9"/>
      <stop offset=".83" stop-color="#07b9c6"/>
    </linearGradient>
    <linearGradient id="linear-gradient-2" x1="252.82" y1="260.12" x2="505.6" y2="260.12" gradientUnits="userSpaceOnUse">
      <stop offset="0" stop-color="#0ad3dd"/>
      <stop offset="1" stop-color="#057d8e"/>
    </linearGradient>
  </defs>

  <!-- Background circle -->
  <circle cx="256" cy="256" r="256" fill="url(#bgGradient)"/>

  <!-- Logo centered and scaled to fit nicely -->
  <g transform="translate(128, 120) scale(0.5)">
    <polygon fill="url(#linear-gradient)" points="253.31 377.04 153.58 476.78 104.2 526.15 78.65 500.6 .9 422.85 .9 .73 63.74 .73 64.43 1.42 78.09 15.08 253.02 190.01 206.09 236.94 78.09 108.94 78.09 401.29 106.65 429.85 206.38 330.11 253.31 377.04"/>
    <rect fill="#00b8cc" x="323.06" y="226.39" width=".4" height="66.09" transform="translate(-88.77 304.56) rotate(-45)"/>
    <polygon fill="#086a81" points="346.48 282.94 300.04 329.38 299.55 329.87 252.82 283.14 299.75 236.21 346.48 282.94"/>
    <polygon fill="url(#linear-gradient-2)" points="505.6 0 505.6 520.24 428.41 520.24 428.41 107.55 300.03 235.93 299.83 235.73 299.55 236.01 252.82 189.28 442.1 0 505.6 0"/>
    <rect fill="#003e54" x="220.13" y="296.68" width="65.68" height="66.09" transform="translate(-159.06 275.45) rotate(-45)"/>
    <rect fill="#08b8c4" x="173.3" y="249.71" width="65.68" height="66.37" transform="translate(-139.66 228.62) rotate(-45)"/>
    <rect fill="#00273d" x="219.64" y="203.03" width="66.37" height="66.37" transform="translate(-92.98 247.96) rotate(-45)"/>
  </g>
</svg>
